<svg width="102" height="114" viewBox="0 0 102 114" fill="none" xmlns="http://www.w3.org/2000/svg">
<path fill-rule="evenodd" clip-rule="evenodd" d="M51 104.5C32.9673 104.5 23.953 104.5 18.3515 97.5413C12.75 90.592 12.75 79.3915 12.75 57C12.75 34.6085 12.75 23.4128 18.3515 16.454C23.953 9.49525 32.9715 9.5 51 9.5C69.0285 9.5 78.047 9.5 83.6485 16.454C89.25 23.4175 89.25 34.6085 89.25 57C89.25 79.3915 89.25 90.5872 83.6485 97.5413C78.047 104.495 69.0285 104.5 51 104.5ZM63.75 28.5H38.25C36.2738 28.5 35.2878 28.5 34.476 28.7423C33.3959 29.0662 32.4111 29.7019 31.6204 30.5857C30.8296 31.4694 30.2608 32.5701 29.971 33.7773C29.75 34.694 29.75 35.796 29.75 38C29.75 40.204 29.75 41.3107 29.9668 42.218C30.2566 43.4251 30.8254 44.5258 31.6161 45.4096C32.4069 46.2933 33.3917 46.9291 34.4718 47.253C35.292 47.5 36.278 47.5 38.25 47.5H63.75C65.7262 47.5 66.7122 47.5 67.524 47.2578C68.6041 46.9338 69.5889 46.2981 70.3796 45.4143C71.1704 44.5306 71.7392 43.4299 72.029 42.2227C72.25 41.306 72.25 40.204 72.25 38C72.25 35.796 72.25 34.6892 72.0332 33.782C71.7434 32.5749 71.1746 31.4742 70.3839 30.5904C69.5931 29.7067 68.6083 29.0709 67.5283 28.747C66.7122 28.5 65.722 28.5 63.75 28.5ZM38.25 61.75C38.25 63.0098 37.8022 64.218 37.0052 65.1088C36.2082 65.9996 35.1272 66.5 34 66.5C32.8728 66.5 31.7918 65.9996 30.9948 65.1088C30.1978 64.218 29.75 63.0098 29.75 61.75C29.75 60.4902 30.1978 59.282 30.9948 58.3912C31.7918 57.5004 32.8728 57 34 57C35.1272 57 36.2082 57.5004 37.0052 58.3912C37.8022 59.282 38.25 60.4902 38.25 61.75ZM51 66.5C52.1272 66.5 53.2082 65.9996 54.0052 65.1088C54.8022 64.218 55.25 63.0098 55.25 61.75C55.25 60.4902 54.8022 59.282 54.0052 58.3912C53.2082 57.5004 52.1272 57 51 57C49.8728 57 48.7918 57.5004 47.9948 58.3912C47.1978 59.282 46.75 60.4902 46.75 61.75C46.75 63.0098 47.1978 64.218 47.9948 65.1088C48.7918 65.9996 49.8728 66.5 51 66.5ZM72.25 61.75C72.25 63.0098 71.8022 64.218 71.0052 65.1088C70.2082 65.9996 69.1272 66.5 68 66.5C66.8728 66.5 65.7918 65.9996 64.9948 65.1088C64.1978 64.218 63.75 63.0098 63.75 61.75C63.75 60.4902 64.1978 59.282 64.9948 58.3912C65.7918 57.5004 66.8728 57 68 57C69.1272 57 70.2082 57.5004 71.0052 58.3912C71.8022 59.282 72.25 60.4902 72.25 61.75ZM68 85.5C69.1272 85.5 70.2082 84.9996 71.0052 84.1088C71.8022 83.218 72.25 82.0098 72.25 80.75C72.25 79.4902 71.8022 78.282 71.0052 77.3912C70.2082 76.5004 69.1272 76 68 76C66.8728 76 65.7918 76.5004 64.9948 77.3912C64.1978 78.282 63.75 79.4902 63.75 80.75C63.75 82.0098 64.1978 83.218 64.9948 84.1088C65.7918 84.9996 66.8728 85.5 68 85.5ZM55.25 80.75C55.25 82.0098 54.8022 83.218 54.0052 84.1088C53.2082 84.9996 52.1272 85.5 51 85.5C49.8728 85.5 48.7918 84.9996 47.9948 84.1088C47.1978 83.218 46.75 82.0098 46.75 80.75C46.75 79.4902 47.1978 78.282 47.9948 77.3912C48.7918 76.5004 49.8728 76 51 76C52.1272 76 53.2082 76.5004 54.0052 77.3912C54.8022 78.282 55.25 79.4902 55.25 80.75ZM34 85.5C35.1272 85.5 36.2082 84.9996 37.0052 84.1088C37.8022 83.218 38.25 82.0098 38.25 80.75C38.25 79.4902 37.8022 78.282 37.0052 77.3912C36.2082 76.5004 35.1272 76 34 76C32.8728 76 31.7918 76.5004 30.9948 77.3912C30.1978 78.282 29.75 79.4902 29.75 80.75C29.75 82.0098 30.1978 83.218 30.9948 84.1088C31.7918 84.9996 32.8728 85.5 34 85.5Z" fill="#ED9913"/>
</svg>
